<svg xmlns:rdf="http://www.w3.org/1999/02/22-rdf-syntax-ns#" xmlns="http://www.w3.org/2000/svg" height="49" width="55" version="1.1" xmlns:cc="http://creativecommons.org/ns#" xmlns:dc="http://purl.org/dc/elements/1.1/" viewBox="0 0 55 49">
 <g transform="translate(-24.667 -466.13)">
  <g transform="matrix(1.246 0 0 1.274 13.289 459.03)">
   <path fill="#fff" d="m45.652 34.793c-3.0366-3.0756-6.6264-5.5252-9.6696-8.6005-3.1784-3.2118-6.1975-6.5159-8.411-10.513-0.88455-1.5973-2.2545-2.8054-4.129-3.3808-1.6192-0.49709-2.9064-0.2879-4.0861 0.98458-2.6387 2.8462-5.481 5.5052-7.8599 8.589-0.19242 0.24943-0.31457 0.55548-0.51865 0.79288-0.21362 0.24844-0.39896 0.66627-0.86024 0.32994-0.38211-0.27861-0.31911-0.58575-0.1043-0.93267 0.69134-1.1165 1.5205-2.1295 2.4076-3.0878 2.4087-2.6022 4.7698-5.2539 7.4425-7.5956 0.3495-0.30618 0.16731-0.44713-0.01531-0.65653-0.682-0.779-1.466-1.4419-2.411-1.8676-1.175-0.5291-1.987 0.1786-2.685 0.9597-1.1625 1.3002-2.1746 2.7171-3.0419 4.237-0.24308 0.42599-0.54225 1.0957-1.1447 0.71713-0.50224-0.31559-0.12144-0.859 0.1334-1.2674 1.0469-1.6778 2.1007-3.3495 3.5369-4.7383 1.668-1.6128 2.9319-1.758 4.7251-0.3195 1.5355 1.2318 2.8371 2.5976 5.0266 2.9289 2.0519 0.31046 3.5075 1.9297 4.5444 3.7565 2.2311 3.9308 5.196 7.2492 8.4033 10.402 3.3993 3.3412 7.2938 6.1112 10.681 9.4586 1.006 0.46664 1.7725 1.2161 2.3432 2.1395 0.46726 0.75604 1.039 1.3978 1.7054 1.9694 0.39804 0.55172 0.31854 1.1056 0.0075 1.6605-0.28708 0.9472-1.0291 0.83162-1.7394 0.71452-0.52538-0.08663-0.69756-0.4955-0.66647-0.97585 0.03551-0.54838 0.20274-0.96853 0.92237-0.55427 0.10682 0.01183-0.04847-0.28096-0.0215-0.12325 0.0133 0.07778-0.02062 0.08508-0.11182 0.04412-0.18179-0.08162-0.40405-0.16128-0.49886-0.3097-1.1131-1.7428-2.9335-2.9038-3.9048-4.7597z"/>
   <path fill="#fff" d="m44.112 36.994c-0.65832-0.22754-1.3371-0.53345-2.0181-0.03925-0.70441 0.05054-1.4083 0.13342-2.1133 0.1452-1.6851 0.02814-2.1414-0.47668-2.0013-2.1611 0.02319-0.27832 0.03149-0.56885 0.11987-0.82886 0.31018-0.91278-0.11017-1.5444-0.77142-2.076-0.40082-0.32214-0.8205-0.62793-1.261-0.89233-2.8154-1.6904-5.6479-3.3524-8.4572-5.0527-3.0575-1.8506-4.6675-4.447-4.052-8.1338 0.07257-0.43481 0.04236-0.89777-0.39203-0.98859-0.52222-0.10919-0.60431 0.4173-0.66821 0.8064-0.07727 0.47009-0.10797 0.94824-0.14819 1.4238-0.04309 0.50897 0.11078 1.0334-0.18597 1.5206-1.4094 2.3138-2.4276 4.8047-3.4487 7.3093-1.6684 4.0919-4.0358 7.8142-6.4916 11.474-0.23505 0.35028-0.68835 0.71387-0.16956 1.1055 0.56177 0.42395 0.88916-0.11279 1.1312-0.48627 2.4947-3.85 5.031-7.6799 6.6743-12.002 0.27173-0.71472 0.60187-0.81482 1.1969-0.31641 1.3353 1.1186 2.6617 2.2541 4.0638 3.2844 1.0085 0.74103 1.2636 1.5106 0.88702 2.7383-0.56769 1.8514 0.2569 2.9111 2.1334 3.1367 2.767 0.33276 5.3785 1.038 7.3652 3.1944 0.43512 0.47223 1.0046 0.77411 1.6451 0.87824 0.57538 0.09357 1.0172-0.20184 1.3209-0.64929 0.23035-0.33942 0.35608-0.89606-0.0065-1.0861-1.0266-0.53778-1.204-1.6326-1.7759-2.4543-1.7938-2.5775-3.7769-4.9956-5.8677-7.3743 1.6527 0.83618 3.2111 1.8101 4.8139 2.7042 1.226 0.6839 1.5253 1.6224 1.3014 2.9765-0.32709 1.9774 0.71362 3.0792 2.748 3.1386 0.79706 0.02332 1.5941 0.04639 2.3911 0.06958 0.58936 0.47058 1.2488 0.41357 1.9099 0.22674 0.36407-0.10284 0.6159-0.35614 0.65149-0.75391 0.03595-0.40204-0.16888-0.71417-0.52478-0.83722zm-7.9687 1.0615c0.20606 0.31525 0.25787 0.65289 0.14203 0.99658-0.55945 0.09418-0.70087-0.39056-0.98499-0.6319-1.9393-1.6472-4.2679-2.1837-6.7104-2.4855-1.7043-0.21069-2.0508-0.7901-1.364-2.4258 0.44928-1.0699 0.16394-1.7866-0.58545-2.5182-1.5924-1.5547-3.3911-2.8534-5.1399-4.2144-0.54553-0.42456-0.86945-0.77673-0.41705-1.5677 0.53809-0.94086 0.87799-1.9954 1.6434-3.0486 0.89557 2.2524 2.6984 3.4154 4.1894 4.9174 3.3638 3.3885 6.5933 6.9488 9.2269 10.978z"/>
   <path fill="#fff" d="m49.149 39.803c-0.68556-0.1609-0.94503 0.44546-1.4335 0.1916-0.65596-0.3409-1.3099-0.68862-1.9405-1.0731-0.15845-0.09665-0.15309-0.3566-0.05566-0.54703 0.13142-0.25687 0.37138-0.2627 0.61296-0.22535 1.0503 0.16245 1.8736 0.71558 2.8167 1.6539z"/>
  </g>
 </g>
</svg>
