<svg xmlns:rdf="http://www.w3.org/1999/02/22-rdf-syntax-ns#" xmlns="http://www.w3.org/2000/svg" height="49" width="55" version="1.1" xmlns:cc="http://creativecommons.org/ns#" xmlns:dc="http://purl.org/dc/elements/1.1/" viewBox="0 0 55 49">
 <g transform="translate(-24.667 -466.13)">
  <g fill="#fff" transform="translate(25.027 466.34)">
   <path d="m12.64 30.078c0.65654 0.87861 1.0449 1.8345 1.0357 2.963-0.0041 0.50481 0.15538 1.0252 0.31443 1.5145 0.5003 1.5389 1.2844 2.0262 2.6814 1.2672 2.6751-1.4534 4.8182-0.27138 6.9819 1.0805 3.0557 1.9092 5.9809 4.0214 9.1559 5.7477 1.9309 1.0498 3.9603 1.359 6.1029 1.2282 0.63858-0.03896 1.2765-0.10043 1.9155-0.11631 0.32165-0.008 0.77244-0.19582 0.84885 0.36313 0.07784 0.56956-0.374 0.62915-0.76142 0.71956-1.9885 0.46397-3.9653 0.37896-5.9317-0.13963-2.4989-0.65897-4.5856-2.1246-6.7365-3.4582-2.2168-1.3743-4.3237-2.9185-6.5988-4.2066-1.5113-0.85564-2.954-0.98285-4.5166-0.1311-1.8503 1.0086-3.8568-0.02118-4.2635-2.1097-0.22737-1.1676-0.22223-2.3855-0.7519-3.488-0.27732-0.60325-0.49918-1.183 0.52389-1.2343z"/>
   <path d="m10.435 29.418c-2.7714-2.053-3.6003-4.201-2.6655-6.805 0.23011-0.64106 0.50714-1.1959 1.2583-1.2487 0.71525-0.0503 0.83918 0.53619 1.1016 1.0447 1.0927 2.1175 2.8314 3.4733 5.1168 4.1337 0.26517 0.44815 0.58172 0.90601-0.21757 1.1534-2.447-0.852-4.59-2.089-5.757-4.555-0.0848-0.179-0.1877-0.234-0.3605-0.191-0.2323 0.057-0.2875 0.245-0.3132 0.449-0.18406 1.466-0.034936 2.8528 1.0922 3.941 0.5615 0.54215 1.1941 1.0107 1.7945 1.5126-0.05376 0.94291-0.19431 1.0185-1.0501 0.56492z"/>
   <path d="m15.029 27.696c0.39828-0.32301 0.16707-0.76478 0.21759-1.1534 2.0824 1.0602 4.1293 2.1806 6.0293 3.5505-0.23502 0.23292-0.47004 0.46586-0.70503 0.69879-1.3439-0.76896-2.7293-1.4762-4.0108-2.3379-0.49535-0.33306-1.1208-0.31665-1.531-0.75797z"/>
   <path d="m10.435 29.418c0.59985 0.27614 0.94478 0.0784 1.05-0.56489 0.53464 0.26735 0.77278 0.81426 1.1552 1.2251-0.58629 0.23668-0.71754 0.66649-0.52386 1.2342-0.56048-0.63146-1.1209-1.2629-1.6814-1.8944z"/>
   <path d="m46.855 37.497c-0.08594-0.51056-0.25958-0.96112-0.62909-1.377-2.7309-3.0737-5.5746-6.0413-8.4564-8.9706-2.822-2.869-5.625-5.796-7.098-9.587-1.082-2.784-2.336-5.459-3.682-8.1093-0.59-1.1614-0.698-2.4462 0.011-3.5655 0.8-1.2645 0.129-1.9405-1.314-2.0314-0.75-0.0473-1.426 0.2627-1.905 0.8406-1.324 1.5963-1.949 3.393-1.703 5.5146 0.26593 2.2953 0.51392 4.603-0.40747 6.8566-0.3653 0.89331-0.2403 1.89-0.15765 2.8476 0.0285 0.3302 0.12793 0.66571 0.4447 0.80274 0.86121 0.37262 1.5551 1.0696 2.5707 1.1597 1.3739 0.12183 2.2662 0.87335 2.8699 2.1704 1.0204 2.1926 2.2523 4.2859 3.3061 6.4642 0.53363 1.103 1.3172 2.0963 1.6942 3.3984-2.1647-0.47595-4.1777-0.9032-6.1392-1.5952-1.7286-0.60986-3.2795-1.582-4.9844-2.2225-0.29529 0.17206-0.78491 0.14807-0.70496 0.69879 0.26477 0.1745 0.51691 0.37317 0.79639 0.51978 2.7108 1.4222 5.52 2.5255 8.5372 3.1887 3.2631 0.71722 6.5225 1.4586 9.783 2.1921 2.0089 0.4519 4.1019 0.6239 5.9786 1.5909 0.29102 0.1499 0.56726 0.58051 0.94019 0.22546 0.26794-0.25519 0.31067-0.64716 0.24927-1.0121zm-12.168-3.052c-0.52417-0.1109-0.70972-0.46869-0.9353-0.82611-1.9224-3.0447-3.3794-6.337-5.0192-9.5312-0.2663-0.51868-0.72852-0.95844-0.77002-1.5892-0.000061-0.000122-0.000061-0.000244-0.000122-0.000366-1.0908-1.0991-2.3298-1.7626-3.951-1.8506-1.264-0.0686-1.679-0.78754-1.4399-2.2148-0.0076-0.19849 0.05756-0.4129 0.1308-0.61646 0.90546-2.6622 0.8783-5.3331 0.40814-8.0992-0.297-1.7471 0.53448-3.3275 1.882-4.5542 0.22846-0.20795 0.4657-0.31671 0.7547-0.22253 0.27686 0.09021 0.17847 0.34918 0.12317 0.50574-1.0395 2.9427 0.36835 5.3029 1.7635 7.694 0.5943 1.0186 1.1084 2.098 1.3148 3.2856 0.48175 1.1148 0.96344 2.2296 1.4452 3.3444 3.701 6.18 9.3934 10.619 13.999 16.008 0.25684 0.30054 0.5199 0.59583 0.86035 0.98547-3.601-0.79572-7.0786-1.5798-10.566-2.318z"/>
   <path d="m22.571 18.432c0.03235-0.19305 0.07495-0.39722 0.1308-0.61646-0.07324 0.20355-0.13843 0.41797-0.1308 0.61646z"/>
  </g>
 </g>
</svg>
