<svg xmlns:rdf="http://www.w3.org/1999/02/22-rdf-syntax-ns#" xmlns="http://www.w3.org/2000/svg" height="49" width="55" version="1.1" xmlns:cc="http://creativecommons.org/ns#" xmlns:dc="http://purl.org/dc/elements/1.1/" viewBox="0 0 55 49">
 <g transform="translate(-24.667 -466.13)">
  <g fill="#fff" transform="translate(24.312 465.27)">
   <path d="m28.459 34.996c-0.70383 1.5482 0.37558 2.8963 0.51718 4.3519 0.09451 0.97166 0.52025 1.9041 0.58907 2.9048 0.0298 0.43279 0.25131 0.98886-0.3002 1.1132-0.67969 0.15317-0.6612-0.53485-0.76456-0.9606-0.39217-1.6152-0.74742-3.2394-1.131-4.8568-0.17909-0.75526-0.39126-1.5027-0.58846-2.2537-0.21938-0.12273-0.33536-0.32088-0.42416-0.54871-0.5199-1.3341-0.50426-1.2178-1.983-0.99451-1.8581 0.28052-3.7488 0.32441-5.6323 0.15054-0.81568-0.37838-1.734-0.4626-2.5205-0.96084-0.41379-0.26208-0.62786-0.50896-0.41616-0.93378 0.22989-0.46137 0.5695-0.21794 0.90978-0.06744 1.2345 0.54599 2.4661 1.1315 3.8827 0.91038 1.2688-0.46349 2.6191-0.60081 3.9087-0.99901 2.0867-0.64433 2.4965-1.1055 2.4799-3.2631-0.0067-0.8775 0.05054-1.7404 0.27062-2.5904 0.27609-0.41918 0.57082-0.40876 0.88113-0.03817 0.90111 1.135 0.88078 2.4548 0.60264 3.7469-0.2008 0.93282 0.14311 1.2139 0.96521 1.3223 1.0381 0.1369 2.0602 0.09576 3.0805-0.11351 0.58248-0.11948 1.1746-0.13614 1.765-0.17324 1.2915-0.13708 2.2195-0.95263 3.1726-1.7133 0.33114-0.26429 0.66653-0.76179 1.07-0.26852 0.32394 0.39614 0.0061 0.82642-0.34433 1.1333-1.4318 1.254-3.0423 2.1199-4.9719 2.3154-0.38897 0.03942-0.76866 0.17015-1.1526 0.25877-0.52447 0.15826-1.0466 0.34874-1.6063 0.28936-1.0202-0.10823-1.6632 0.23981-1.7744 1.3461-0.03422 0.34051-0.12472 0.70386-0.48513 0.89252z"/>
   <path d="m42.536 29.312c0.1425 2.5567-0.93126 5.6211-1.7978 8.717-0.43729 1.5622-0.98965 3.0934-1.5276 4.6254-0.12229 0.34824-0.30173 0.8685-0.79535 0.72279-0.59962-0.177-0.36457-0.75228-0.25134-1.1221 0.55676-1.8185 1.1739-3.6183 1.7588-5.4283 1.3544-4.1915 2.0523-8.4489 1.035-12.82-0.73-3.136-1.77-6.177-3.151-9.091-0.542-1.145-1.126-2.272-1.727-3.387-0.915-1.6995-0.856-3.5325-0.8-5.3708 0.01108-0.36792 0.15504-0.62024 0.55002-0.64433 0.50256-0.030648 0.58102 0.31018 0.58679 0.70329 0.000584 0.039934 0.006 0.080623 0.000408 0.11971-0.39814 2.779 0.9443 5.0406 2.071 7.4166 2.2221 4.6861 3.9977 9.5241 4.0478 15.558z"/>
   <path d="m16.799 7.0013c-0.10793 2.291-0.73453 4.2795-1.3775 6.2943-0.73418 2.3005-1.2729 4.6775-1.7068 7.056-0.53637 2.9402-0.83446 5.9067-0.82292 8.9206 0.01248 3.2538 0.92514 6.285 1.7758 9.3509 0.36088 1.3006 0.77139 2.5877 1.1172 3.8922 0.09829 0.37076 0.15372 0.86113-0.4045 0.96208-0.45319 0.08198-0.60536-0.31624-0.70283-0.65246-1.697-5.8522-3.5852-11.661-2.7345-17.921 0.48806-3.5912 1.1094-7.1312 2.1093-10.627 0.75952-2.6554 1.8629-5.2747 1.6617-8.143-0.0174-0.24829 0.01562-0.57048 0.41613-0.61358 0.44552-0.047932 0.55702 0.2585 0.61049 0.57439 0.05953 0.35145 0.04808 0.71493 0.05848 0.90664z"/>
  </g>
 </g>
</svg>
