<?xml version="1.0" encoding="UTF-8" standalone="no"?>
<!-- Created with Inkscape (http://www.inkscape.org/) -->

<svg
   xmlns:dc="http://purl.org/dc/elements/1.1/"
   xmlns:cc="http://creativecommons.org/ns#"
   xmlns:rdf="http://www.w3.org/1999/02/22-rdf-syntax-ns#"
   xmlns:svg="http://www.w3.org/2000/svg"
   xmlns="http://www.w3.org/2000/svg"
   xmlns:sodipodi="http://sodipodi.sourceforge.net/DTD/sodipodi-0.dtd"
   xmlns:inkscape="http://www.inkscape.org/namespaces/inkscape"
   width="55"
   height="49"
   viewBox="0 0 55 49"
   id="svg2"
   version="1.1"
   inkscape:version="0.91 r13725"
   sodipodi:docname="4.svg">
  <defs
     id="defs4" />
  <sodipodi:namedview
     id="base"
     pagecolor="#ffffff"
     bordercolor="#666666"
     borderopacity="1.0"
     inkscape:pageopacity="0.0"
     inkscape:pageshadow="2"
     inkscape:zoom="2.8"
     inkscape:cx="-32.071988"
     inkscape:cy="-4.2172483"
     inkscape:document-units="px"
     inkscape:current-layer="layer1"
     showgrid="false"
     units="px"
     fit-margin-top="0"
     fit-margin-left="0"
     fit-margin-right="0"
     fit-margin-bottom="0"
     inkscape:window-width="1920"
     inkscape:window-height="1027"
     inkscape:window-x="-8"
     inkscape:window-y="-8"
     inkscape:window-maximized="1" />
  <metadata
     id="metadata7">
    <rdf:RDF>
      <cc:Work
         rdf:about="">
        <dc:format>image/svg+xml</dc:format>
        <dc:type
           rdf:resource="http://purl.org/dc/dcmitype/StillImage" />
        <dc:title></dc:title>
      </cc:Work>
    </rdf:RDF>
  </metadata>
  <g
     inkscape:label="Layer 1"
     inkscape:groupmode="layer"
     id="layer1"
     transform="translate(-24.667222,-466.12554)">
    <g
       id="g4272"
       transform="translate(27.29581,468.30198)">
      <path
         id="path4274"
         d="m 31.752461,44.964363 c -0.64733,-0.267845 -0.467621,-0.791309 -0.229205,-1.237396 0.578039,-1.081524 1.066489,-2.196396 1.42467,-3.367344 1.580925,-5.168015 3.719066,-10.167048 4.768299,-15.495255 0.787876,-4.000875 1.471557,-8.022291 2.262378,-12.022556 0.344185,-1.74101 0.766655,-3.476671 1.497906,-5.1069391 0.183849,-0.4098611 0.483349,-0.9845972 1.060677,-0.6907506 0.60458,0.3077054 0.181644,0.7759867 -0.0076,1.1924233 -0.956448,2.1051294 -1.38004,4.3653454 -1.833931,6.6078204 -0.691506,3.416361 -1.258778,6.858208 -1.973008,10.269507 -0.506725,2.420166 -0.780819,4.999921 -1.852775,7.164798 -1.600109,3.231537 -1.906327,6.827732 -3.410488,10.041817 -0.317166,0.677738 -0.623806,1.361523 -0.972962,2.022625 -0.139511,0.264179 -0.282535,0.584118 -0.734008,0.62125 z"
         inkscape:connector-curvature="0"
         style="fill:#ffffff" />
      <path
         id="path4276"
         d="m 20.912499,42.13884 c -0.07229,0.550209 -0.378468,0.907879 -0.924706,0.869953 -0.494717,-0.03434 -0.86355,-0.271542 -0.83864,-0.906826 0.02282,-0.581947 0.357056,-0.756718 0.820276,-0.786049 0.559835,-0.03546 0.865065,0.281208 0.94307,0.822922 z"
         inkscape:connector-curvature="0"
         style="fill:#ffffff" />
      <path
         id="path4278"
         d="m 15.412796,15.011963 c 0.502502,2.52185 0.974976,5.047119 1.595215,7.544433 0.478882,1.927857 1.485107,3.535706 2.799194,4.98639 0.249512,0.27539 0.486389,0.440673 0.745544,0.08404 0.576966,-0.794067 0.489564,-3.751953 -0.134582,-4.587036 -0.594849,-0.795837 -1.054138,-1.645874 -1.350586,-2.602478 -0.297485,-0.9599 -0.725647,-1.795837 -1.568115,-2.504822 -1.362915,-1.146973 -1.262756,-2.600342 0.08282,-3.649719 0.395507,-0.308472 0.440856,-0.681397 0.369445,-1.043518 -0.186035,-0.943482 -0.13562,-1.887329 -0.08215,-2.95929 -2.92633,1.471802 -3.0354,1.828125 -2.456787,4.731995 z"
         inkscape:connector-curvature="0"
         style="fill:none" />
      <path
         id="path4280"
         d="m 23.750259,25.432922 c -1.697265,-0.566345 -1.695922,-0.570373 -2.000488,1.191346 -0.344421,1.992492 -1.356323,3.392944 -2.827515,3.533813 -0.884704,0.08466 -1.418945,0.527771 -2.019409,1.037537 -1.139099,0.966919 -1.9057,2.198608 -2.545349,3.509582 -1.05426,2.160889 -1.309692,4.262085 0.420044,6.291321 0.619812,0.727112 0.900085,0.597656 1.429504,-0.03229 1.741944,-2.072631 3.707337,-3.985168 6.197266,-5.036987 1.610718,-0.68042 2.726135,-1.475281 3.048157,-3.201111 0.177917,-0.953308 1.200744,-1.678344 1.050659,-2.595947 -0.260681,-1.593994 -0.238342,-3.126587 0.231873,-4.858887 -1.119507,0.420288 -2.05066,0.473328 -2.984742,0.161621 z"
         inkscape:connector-curvature="0"
         style="fill:none" />
      <path
         id="path4282"
         d="m 20.222244,8.1528931 c -0.130432,0.1785278 -0.239319,0.4571533 0.05853,0.6068115 0.235962,0.1185303 0.484253,0.00836 0.650757,-0.1629639 0.331116,-0.3406372 0.771179,-0.5380859 0.98883,-0.7564697 -0.554077,0.4252319 -1.1958,0.9983521 -1.726562,1.677002 -0.253357,0.3239136 -0.645569,0.645569 -0.305359,1.142822 1.077637,-0.469665 2.167847,-0.7789914 3.370239,-0.8890988 2.319214,-0.2123413 4.669495,-0.362793 6.860352,-1.3195801 1.446594,-0.6317749 2.317261,-1.8050537 2.247436,-3.1589355 -0.07971,-1.5454102 -1.005615,-2.90448 -2.369628,-3.2130127 -1.690491,-0.3823242 -3.391541,-0.296875 -5.031617,0.3294067 -2.371277,0.9055176 -3.975708,2.6260376 -5.09851,4.8487549 -0.495911,0.5351561 0.731872,0.3802489 0.355529,0.8952636 z"
         inkscape:connector-curvature="0"
         style="fill:none" />
      <path
         id="path4284"
         d="m 18.317093,28.830017 c 0.668945,-0.322937 0.542847,-0.656799 0.14154,-1.143921 -0.955566,-1.159851 -1.784057,-2.389953 -2.215149,-3.872436 -1.019775,-3.507325 -1.760131,-7.065491 -2.200622,-10.691956 -0.139771,-1.150696 0.137146,-2.004944 1.211853,-2.55011 2.508423,-1.2722776 3.966492,-3.4144285 4.991821,-6.0805662 -3.006164,1.2032471 -5.965088,2.15625 -9.010681,2.8421631 -2.5567017,0.5757446 -2.4992065,0.6022339 -2.2803955,3.2691651 0.3082886,3.757324 0.6103516,7.499267 1.5756225,11.174499 0.972534,3.703003 2.206848,7.316956 3.374085,11.212708 1.287903,-1.811157 2.585144,-3.277527 4.411926,-4.159546 z"
         inkscape:connector-curvature="0"
         style="fill:none" />
      <path
         id="path4286"
         d="m 33.398697,6.6966553 c -0.360047,-0.093628 -0.441284,0.5259399 -0.65387,0.8312378 -0.261902,0.3761597 -0.665771,0.6503906 -0.986938,0.9889526 -0.600647,0.6333008 -1.520752,0.722168 -2.309937,1.3154907 1.820252,0.8533936 3.218384,2.0210566 4.074585,4.1272586 0.220398,-2.095886 -0.26709,-3.619873 -1.127319,-5.0687259 1.254211,0.7418823 1.31366,2.1015629 1.913208,3.4946289 0.53717,-1.778442 0.362549,-3.2521362 -0.153931,-4.6887817 -0.140381,-0.3903809 -0.433838,-0.9163208 -0.755798,-1.000061 z"
         inkscape:connector-curvature="0"
         style="fill:none" />
      <path
         id="path4288"
         d="m 31.346024,21.041016 c -0.631409,1.099304 -1.437378,2.08197 -2.415101,2.878906 -1.544006,1.258484 -1.666198,2.985168 -1.712036,4.761597 2.3844,-2.256653 3.925232,-4.960938 4.68219,-8.105286 -0.250488,0.06128 -0.406128,0.205444 -0.555053,0.464783 z"
         inkscape:connector-curvature="0"
         style="fill:none" />
      <path
         id="path4290"
         d="m 27.045181,10.313599 c -1.409302,0.02692 -2.838562,0.250976 -4.265503,0.338867 -2.287109,0.140747 -3.984802,1.903015 -3.910949,3.96344 0.09308,2.596435 0.674072,4.939819 1.756347,7.084533 1.657715,3.284974 5.198914,3.883973 7.873597,1.356812 1.6651,-1.573303 2.652526,-3.567139 3.753051,-5.533447 1.999146,-3.572144 -1.832153,-7.274659 -5.206543,-7.210205 z"
         inkscape:connector-curvature="0"
         style="fill:none" />
      <path
         id="path4292"
         d="M 36.679336,7.9454346 C 35.899795,7.588501 36.015335,8.7313233 35.497574,8.9824219 35.299515,8.3459473 35.166519,7.6823731 34.887649,7.0870972 34.58931,6.4500733 34.15834,5.8841553 33.607132,5.4067993 33.391556,5.2200928 33.307693,4.8546753 33.217056,4.5546264 32.174332,1.1022338 28.05397,-0.8474732 24.661331,0.444641 23.429092,0.9140014 22.695145,2.0329589 21.64418,2.6090697 c -1.75,0.9592285 -3.691345,1.5947876 -5.593933,2.2440186 -2.512024,0.8571777 -5.096313,1.4649048 -7.7211303,1.8811035 -0.5015258,0.079529 -0.7703856,0.2539674 -0.715515,0.8529054 0.1625977,1.7758179 0.2288208,3.5606688 0.3983765,5.3356938 0.3053589,3.197509 0.6311035,6.389831 1.5105591,9.503051 0.9451907,3.346009 1.9687497,6.66449 3.0628047,9.964661 0.300171,0.905518 0.553162,1.846863 0.306397,2.903687 -0.407044,1.743347 -1.285706,3.195739 -2.603272,4.272155 -1.6747432,1.368164 -1.5336909,2.985291 -1.0812373,4.737427 0.1099243,0.425781 0.3639526,0.863281 0.9287113,0.689453 0.687256,-0.211548 0.315246,-0.649231 0.179138,-1.048156 -0.3359987,-0.984436 -0.7035524,-1.989075 0.128967,-2.915467 0.498047,-0.554199 1.030335,-1.077942 1.554016,-1.608642 0.356018,-0.36084 0.566345,-0.506043 0.766602,0.19403 0.317077,1.108765 0.978699,2.024292 1.880432,2.795105 0.842102,0.71991 1.479919,0.6073 2.054138,-0.249694 0.485107,-0.723999 1.099548,-1.325745 1.713501,-1.929627 1.493225,-1.468689 3.120544,-2.761963 5.04541,-3.621033 0.467957,-0.208862 1.4068,-0.693847 1.322144,0.287537 -0.207764,2.410095 1.123413,4.753113 0.221008,7.160095 -0.119812,0.319397 0.04431,0.526612 0.273804,0.715576 0.335449,0.276246 0.480957,-0.04669 0.686584,-0.203552 0.388367,-0.296264 0.304993,-0.79602 0.513916,-1.194885 1.003174,0.220032 1.745728,0.93042 2.63031,1.358215 0.386719,0.186951 0.715455,0.433289 1.031434,0.0082 0.354492,-0.476868 -0.113831,-0.716187 -0.390076,-0.961304 -0.169312,-0.150207 -0.438599,-0.18164 -0.630127,-0.313965 -1.256409,-0.867736 -3.009461,-1.198547 -3.008667,-3.319458 8.54e-4,-2.164245 -0.631409,-4.320373 0.169556,-6.485351 0.664001,-1.794861 1.581237,-3.440247 2.671814,-4.989136 1.108337,-1.574097 2.455139,-2.995544 3.078002,-4.86969 1.569642,-4.722595 3.136658,-9.446167 4.667786,-14.1812742 0.172363,-0.5331423 0.835693,-1.2852175 -0.0163,-1.6753542 z M 24.965225,2.4088745 c 1.640076,-0.6262817 3.341126,-0.711731 5.031616,-0.3294067 1.364014,0.3085327 2.289917,1.6676025 2.369629,3.2130127 0.06983,1.3538818 -0.800842,2.5271606 -2.247436,3.1589355 -2.190857,0.9567871 -4.541138,1.1072388 -6.860352,1.3195801 -1.202392,0.1101074 -2.292602,0.4194339 -3.370239,0.8890989 -0.34021,-0.497253 0.052,-0.8189085 0.305359,-1.1428221 0.530762,-0.6786499 1.172485,-1.25177 1.726562,-1.677002 C 21.702713,8.0586547 21.26265,8.2561034 20.931534,8.5967406 20.76503,8.7680663 20.516739,8.8782347 20.280777,8.7597045 19.982925,8.6100463 20.091812,8.3314208 20.222244,8.152893 20.598587,7.6378784 19.370804,7.7927856 19.866714,7.2576293 20.989517,5.0349121 22.593948,3.3143921 24.965225,2.4088745 Z M 10.531082,21.776855 C 9.5658112,18.101624 9.2637482,14.35968 8.9554596,10.602356 8.7366486,7.9354248 8.6791534,7.9089356 11.235855,7.333191 c 3.045593,-0.6859131 6.004517,-1.638916 9.010681,-2.8421631 -1.025329,2.6661377 -2.483398,4.8082886 -4.991821,6.0805661 -1.074707,0.545166 -1.351623,1.399414 -1.211853,2.55011 0.440491,3.626465 1.180847,7.184631 2.200623,10.691956 0.431091,1.482483 1.259582,2.712585 2.215148,3.872436 0.401307,0.487122 0.527405,0.820984 -0.14154,1.143921 -1.826782,0.882019 -3.124023,2.348389 -4.411926,4.159546 -1.167237,-3.895752 -2.401551,-7.509705 -3.374085,-11.212708 z m 7.420654,-8.537597 c 0.07141,0.362121 0.02606,0.735046 -0.369445,1.043518 -1.345581,1.049377 -1.44574,2.502746 -0.08282,3.649719 0.842468,0.708984 1.27063,1.544922 1.568115,2.504822 0.296448,0.956604 0.755737,1.80664 1.350586,2.602478 0.624146,0.835083 0.711548,3.792969 0.134583,4.587036 -0.259156,0.356628 -0.496033,0.191345 -0.745545,-0.08404 -1.314087,-1.450684 -2.320312,-3.058533 -2.799194,-4.98639 -0.620239,-2.497314 -1.092713,-5.022583 -1.595215,-7.544433 -0.578613,-2.90387 -0.469543,-3.260193 2.456787,-4.731995 -0.05347,1.071961 -0.103882,2.015808 0.08215,2.95929 z m 0.247986,3.993347 c -0.613769,0.0531 -0.481323,-0.535828 -0.701965,-0.805908 -0.265686,-0.325196 -0.294434,-0.732788 0.0054,-1.073853 0.07581,-0.08618 0.313416,-0.134704 0.408752,-0.08069 0.377381,0.213867 0.287354,0.617492 0.284241,0.954956 -0.0031,0.332397 0.224915,0.671081 0.0035,1.005493 z m 8.303406,12.897583 c 0.150085,0.917603 -0.872742,1.642639 -1.050659,2.595947 -0.322022,1.72583 -1.437439,2.520691 -3.048157,3.201111 -2.489929,1.051819 -4.455322,2.964356 -6.197265,5.036987 -0.529419,0.629944 -0.809693,0.7594 -1.429505,0.03229 -1.729736,-2.029236 -1.474304,-4.130432 -0.420044,-6.291321 0.639649,-1.310974 1.40625,-2.542663 2.545349,-3.509582 0.600464,-0.509766 1.134705,-0.952881 2.01941,-1.037537 1.471191,-0.140869 2.483093,-1.541321 2.827514,-3.533813 0.304566,-1.761719 0.303223,-1.757691 2.000489,-1.191346 0.934082,0.311707 1.865234,0.258667 2.984741,-0.161621 -0.470215,1.7323 -0.492554,3.264893 -0.231873,4.858887 z m 0.715759,-1.448669 c 0.04584,-1.776429 0.16803,-3.503113 1.712036,-4.761597 0.977723,-0.796936 1.783692,-1.779602 2.4151,-2.878906 0.148926,-0.259339 0.304566,-0.403504 0.555054,-0.464783 -0.756958,3.144348 -2.29779,5.848633 -4.68219,8.105286 z m 5.032837,-11.157715 c -1.100525,1.966308 -2.087952,3.960144 -3.753052,5.533447 -2.674682,2.527161 -6.215881,1.928162 -7.873596,-1.356812 -1.082275,-2.144714 -1.663269,-4.488098 -1.756348,-7.084533 -0.07385,-2.060425 1.623841,-3.822693 3.91095,-3.96344 1.426941,-0.08789 2.856201,-0.311951 4.265503,-0.338867 3.37439,-0.06445 7.205689,3.638061 5.206543,7.210205 z m 2.056702,-5.138306 c -0.599548,-1.393066 -0.658997,-2.7527466 -1.913208,-3.4946289 0.860229,1.4488529 1.347717,2.9728399 1.127319,5.0687259 -0.856201,-2.106202 -2.254333,-3.273865 -4.074585,-4.1272586 0.789185,-0.5933228 1.70929,-0.6821899 2.309937,-1.3154907 0.321167,-0.338562 0.725036,-0.612793 0.986938,-0.9889526 0.212586,-0.3052979 0.293823,-0.9248657 0.65387,-0.8312378 0.32196,0.08374 0.615417,0.6096802 0.755798,1.000061 0.51648,1.4366455 0.691101,2.9103397 0.153931,4.6887817 z"
         inkscape:connector-curvature="0"
         style="fill:#ffffff" />
      <path
         id="path4294"
         d="m 22.15514,14.201145 c 1.075106,0.0711 1.590591,0.756654 1.976316,1.569034 0.104195,0.219443 -0.143404,0.630391 -0.275043,0.465199 -0.681641,-0.855369 -2.026177,0.599215 -2.50037,-0.764124 -0.02202,-0.06336 -0.115959,-0.144186 -0.176765,-0.144495 -0.334858,-0.0017 -0.781056,0.710652 -0.939484,0.09196 -0.133362,-0.5207 0.652241,-0.690268 1.07366,-0.9466 0.261882,-0.159279 0.597849,-0.196747 0.841686,-0.270971 z"
         inkscape:connector-curvature="0"
         style="fill:#ffffff" />
      <path
         id="path4296"
         d="m 27.231613,16.848989 c 0.447247,-1.045401 1.03479,-1.56793 1.786972,-1.564144 0.951102,0.0048 1.651339,0.664445 2.212778,1.4079 0.07809,0.103432 0.111353,0.327481 0.0521,0.43058 -0.141828,0.246775 -0.407659,0.100176 -0.491539,-0.02286 -0.344885,-0.505949 -0.614185,-0.523463 -1.084751,-0.09024 -0.266954,0.245766 -0.885763,0.227675 -1.101339,-0.0808 -0.346752,-0.496157 -0.733513,-0.264218 -1.374226,-0.08044 z"
         inkscape:connector-curvature="0"
         style="fill:#ffffff" />
      <path
         id="path4298"
         d="m 31.645786,15.600501 c -1.241783,-0.62229 -2.544254,-0.781262 -3.879638,-0.796074 -0.212254,-0.0024 -0.351708,-0.170188 -0.343588,-0.402581 0.0078,-0.222898 0.200725,-0.224764 0.3449,-0.232911 1.483537,-0.08385 2.890308,0.0691 3.878326,1.431566 z"
         inkscape:connector-curvature="0"
         style="fill:#ffffff" />
      <path
         id="path4300"
         d="m 22.071728,13.172313 c 0.70136,0.107038 1.406029,0.196806 2.102156,0.330982 0.227369,0.04382 0.471061,0.217688 0.422744,0.491069 -0.05785,0.327498 -0.370975,0.251811 -0.57135,0.196998 -1.12393,-0.307439 -2.248079,-0.413253 -3.38635,-0.09581 -0.238169,0.06642 -0.380713,-0.01101 -0.416012,-0.254683 -0.03626,-0.250106 0.122852,-0.367783 0.334638,-0.394506 0.507601,-0.06406 0.979508,-0.339034 1.514174,-0.274049 z"
         inkscape:connector-curvature="0"
         style="fill:#ffffff" />
      <path
         id="path4302"
         d="m 24.870871,22.542133 c -0.406378,0.0022 -0.757517,0.0039 -1.043959,-0.271717 -0.344929,-0.331899 -1.145369,-0.606838 -0.813149,-1.083052 0.383889,-0.550281 0.743481,0.260561 1.078793,0.469048 0.596361,0.370792 1.084766,0.341089 1.627201,-0.04175 0.165222,-0.1166 0.398392,-0.378992 0.589556,-0.07589 0.180013,0.285471 0.023,0.477779 -0.278397,0.636421 -0.386919,0.203663 -0.744791,0.444341 -1.160045,0.366941 z"
         inkscape:connector-curvature="0"
         style="fill:#ffffff" />
      <path
         id="path4304"
         d="m 25.125465,20.377382 c -0.098,-0.02072 -0.318243,8e-6 -0.393596,-0.09464 -0.36153,-0.45412 -1.520018,-0.165884 -1.278408,-0.916713 0.186193,-0.578637 0.9547,-0.03224 1.424289,0.176387 0.419554,0.186408 0.772311,-0.09534 1.158268,-0.07137 0.309018,0.01919 0.707045,-0.01107 0.698241,0.436978 -0.0074,0.377586 -0.318943,0.340675 -0.619244,0.330993 -0.308159,-0.0099 -0.619594,0.08192 -0.98955,0.138359 z"
         inkscape:connector-curvature="0"
         style="fill:#ffffff" />
    </g>
  </g>
</svg>
