<svg xmlns:rdf="http://www.w3.org/1999/02/22-rdf-syntax-ns#" xmlns="http://www.w3.org/2000/svg" height="49" width="55" version="1.1" xmlns:cc="http://creativecommons.org/ns#" xmlns:dc="http://purl.org/dc/elements/1.1/" viewBox="0 0 55 49">
 <g transform="translate(-24.667 -466.13)">
  <g fill="#fff" transform="translate(28.81 464.82)">
   <path d="m14.247 7.9282c0.36955 1.8929-0.86824 3.476-1.7086 5.1615-1.8011 3.6125-3.2301 7.3651-3.9718 11.324-0.51404 2.7437-0.53276 5.5351 0.153 8.3083 0.77254 3.1241 1.7276 6.1885 2.7341 9.2404 0.12198 0.36989 0.39829 0.80109-0.15084 1.0127-0.60821 0.23439-0.69736-0.2825-0.844-0.69861-1.6252-4.6118-3.3832-9.2165-3.3931-14.184-0.00756-3.7809 1.0871-7.3892 2.4334-10.899 0.87887-2.2916 1.9071-4.5174 3.1123-6.6632 0.64497-1.1485 0.63322-2.4528 0.62027-3.7368-0.004-0.39726-0.01853-0.80487 0.06192-1.1889 0.05379-0.25675 0.23652-0.51955 0.60319-0.44642 0.3095 0.061734 0.34062 0.3123 0.34535 0.54756 0.01364 0.67863 0.0048 1.3577 0.0048 2.2237z"/>
   <path d="m37.932 28.211c0.04815 3.3141-0.74612 6.4806-1.6438 9.6302-0.41399 1.4525-0.83466 2.9034-1.2183 4.364-0.1343 0.51134-0.27436 0.97902-0.92157 0.80562-0.71121-0.19056-0.31544-0.66883-0.2064-1.0584 0.75004-2.6792 1.6379-5.3289 2.2196-8.0442 0.94938-4.4321 0.61381-8.8826-0.14798-13.327-0.65424-3.8169-1.8333-7.4887-2.8785-11.199-0.3332-1.1827-0.18718-2.3811-0.23537-3.5736-0.01428-0.35336 0.11948-0.65805 0.52895-0.65265 0.40598 0.00535 0.53596 0.32185 0.52317 0.66414-0.1375 3.6835 1.5319 6.9667 2.3168 10.445 0.88911 3.9398 1.5293 7.906 1.6634 11.946z"/>
   <path d="m23.78 31.416c0.15075 0.82344-0.37632 1.4679-0.59052 2.1936-0.14154 0.47958-0.42477 0.92137-0.3252 1.4535-0.74156 2.0562-1.0978 4.203-1.55 6.3307-0.12139 0.57116 0.07015 1.7828-0.97214 1.5381-0.87634-0.20572-0.26184-1.1228-0.16746-1.7245 0.32293-2.0592 1.1708-4.0228 1.1208-6.1508-0.0284-1.0685-0.4747-2.0447-0.70997-3.0664-0.1071-0.46514-0.04904-0.8281 0.11755-1.224 0.91907 0.72163 1.9956 0.69707 3.0769 0.64976z"/>
   <path d="m26.713 14.906c-0.11354 0.56456-0.12153 1.2995-0.88832 1.6869-0.60625 0.3063-1.0233 0.04507-1.2821-0.44799-0.25551-0.48674-0.0027-0.8473 0.51316-0.97326 0.3475-0.08486 0.5894-0.21921 0.59103-0.61879 0.0015-0.36978 0.16328-0.66185 0.56211-0.59008 0.4086 0.07354 0.5389 0.41951 0.50417 0.94322z"/>
  </g>
 </g>
</svg>
