<svg xmlns:rdf="http://www.w3.org/1999/02/22-rdf-syntax-ns#" xmlns="http://www.w3.org/2000/svg" height="49" width="55" version="1.1" xmlns:cc="http://creativecommons.org/ns#" xmlns:dc="http://purl.org/dc/elements/1.1/" viewBox="0 0 55 49">
 <g transform="translate(-24.667 -466.13)">
  <g transform="matrix(1.2684 0 0 1.0952 24.343 463.88)">
   <path fill="none" d="m22.18 17.133c-1.7672 0.46814-3.5497 0.87811-5.3115 1.3668-1.8279 0.50702-3.3406 2.4539-3.3514 4.837 0.67548 3.3099 1.694 7.0171 4.5867 9.8324 2.371 2.3076 5.5151 2.2277 7.8844-0.06702 2.144-2.0766 3.256-4.742 4.0888-7.5259 0.268-0.89594 0.77002-1.7461 0.65088-2.7595-0.54956-4.675-5.5699-6.4727-8.548-5.6837z"/>
   <path fill="none" d="m26.087 16.29c2.7883 0.67639 4.5886 2.4505 5.5677 5.1329 0.10016-0.01795 0.20032-0.03595 0.30048-0.05396 0-1.774 0.07983-3.5528-0.02551-5.3205-0.08288-1.3904-0.45343-2.764-1.3881-3.8571-0.25458-0.29779-0.36444-0.93085-0.89313-0.83203-0.51465 0.09625-0.15607 0.69269-0.37158 1.0035-0.09027 0.13025-0.17072 0.26953-0.23871 0.41278-0.61212 1.2895-1.7633 2.0193-2.8903 2.7677-0.1922 0.12768-0.47699 0.13721-0.40375 0.47125 0.03882 0.17749 0.17682 0.23505 0.34277 0.27533z"/>
   <g fill="#fff">
    <path d="m37.87 41.549c-0.94751-0.2326-1.5765-0.84967-2.1118-1.6229-1.6944-2.4474-1.9709-5.3163-2.4793-8.126-0.5448-3.011-0.18201-6.0458-0.30847-9.0674-0.09515-2.2734 0.04724-4.5558 0.03198-6.8339-0.0166-2.4739-1.1996-4.3944-3.0563-5.9139-0.322-0.2638-0.565-0.4861-0.7-0.8701-0.91-2.5775-2.885-3.675-5.473-3.8698-6.265-0.472-12.81 3.6066-15.258 9.3849-2.4246 5.721-2.5027 11.511-0.9042 17.444 0.44708 1.6594 1.2102 3.1806 1.7366 4.8025 0.55469 1.7092 1.6305 3.2501 2.4883 4.8593 0.17181 0.32233 0.41003 0.68066 0.83081 0.44159 0.37573-0.21356 0.27057-0.61566 0.14886-0.96136-0.05157-0.14648-0.13202-0.28418-0.20953-0.41998-1.878-3.287-3.3929-6.71-4.2157-10.435-1.2046-5.454-0.9342-10.686 1.4716-15.848 2.4781-5.3163 8.6281-8.4819 13.858-8.2162 2.3953 0.12177 4.035 1.4854 4.5771 3.6618 0.40723 1.6348-0.40143 3.1251-2.4869 4.4173-2.409 1.4926-5.1409 2.0815-7.861 2.6689-2.5189 0.54394-4.4908 1.7132-5.3168 4.3247-0.32825 1.038-0.22107 2.2656-1.3818 2.9462-0.35889 0.21039-0.31769 0.72302-0.26105 1.1166 0.20679 1.4374 0.94659 2.5366 2.2951 3.0895 0.50378 0.20654 0.78699 0.46747 0.97278 0.93646 0.54523 1.376 1.2012 2.7684 2.2952 3.7164 1.6628 1.4409 1.6408 3.2626 1.5621 5.1127-0.05908 1.3878-0.51819 2.6737-1.9864 3.2674-0.42816 0.1731-0.54083 0.50262-0.35297 0.86237 0.17902 0.34271 0.52783 0.26746 0.84674 0.14191 0.89026-0.35059 1.5079-0.98425 1.9802-1.8032 0.85022-1.4742 0.72565-3.0745 0.64075-4.6688-0.0238-0.4469-0.15112-0.80981 0.57117-0.55505 1.5412 0.54352 3.1124 0.59491 4.6519-0.04041 0.54944-0.22681 0.60376 0.02618 0.5965 0.47552-0.01618 0.99854-0.07098 2.0028 0.0093 2.9951 0.12708 1.5696 0.93243 2.7465 2.3209 3.507 0.41589 0.22778 0.89307 0.35736 1.1458-0.151 0.25421-0.51123-0.22436-0.65417-0.59186-0.8244-0.63623-0.29468-1.197-0.76624-1.3908-1.4089-0.75086-2.4888-0.90546-4.9171 1.0361-7.038 0.77594-0.8476 1.3597-1.8333 1.8605-2.8733 0.47449-0.98523 0.9613-1.9923 2.3615-2.1993 0.04718 0.46033 0.09857 0.89227 0.1347 1.3256 0.26196 3.139 0.55389 6.2775 1.7673 9.2275 0.73908 1.7969 1.7327 3.4117 3.7139 4.0993 0.39539 0.13727 0.84357 0.18695 1.0059-0.31708 0.13953-0.43317-0.18836-0.66834-0.56567-0.76099zm-11.722-26.006c1.127-0.74841 2.2781-1.4782 2.8903-2.7677 0.06799-0.14325 0.14844-0.28253 0.23871-0.41278 0.21552-0.31085-0.14307-0.90729 0.37158-1.0035 0.52869-0.09882 0.63855 0.53424 0.89313 0.83203 0.93463 1.093 1.3052 2.4667 1.3881 3.8571 0.10535 1.7677 0.02551 3.5465 0.02551 5.3205-0.10016 0.01801-0.20032 0.03601-0.30048 0.05396-0.97919-2.6824-2.7794-4.4565-5.5677-5.1329-0.16596-0.04028-0.30396-0.09784-0.34277-0.27533-0.07324-0.33405 0.21155-0.34357 0.40375-0.47125zm-12.981 11.489c-0.44244 0.22333-0.57581-0.5036-0.82562-0.80713-0.34106-0.41437-0.40295-0.93829-0.0965-1.436 0.0296-0.04804 0.14264-0.04468 0.21661-0.06403 0.24414 0.01685 0.3233 0.18036 0.36432 0.39075 0.05261 0.27008 0.15247 0.53546 0.16956 0.80682 0.02496 0.39575 0.63153 0.8775 0.17163 1.1096zm16.91-1.4554c-0.83282 2.7839-1.9448 5.4493-4.0888 7.5259-2.3693 2.2947-5.5134 2.3746-7.8844 0.06702-2.8928-2.8153-3.9113-6.5225-4.5867-9.8324 0.01074-2.3831 1.5234-4.33 3.3514-4.837 1.7618-0.48865 3.5442-0.89862 5.3115-1.3668 2.978-0.78894 7.9984 1.0087 8.548 5.6837 0.11914 1.0134-0.38287 1.8636-0.65088 2.7595zm2.0486-0.32092c-0.13648 0.75159-0.41431 1.4053-1.3135 1.8143 0.08527-0.83307 0.35797-1.3923 0.61401-1.9537 0.0802-0.17572 0.01013-0.55572 0.37628-0.42602 0.20862 0.07391 0.37384 0.2865 0.32318 0.56543z"/>
    <path d="m16.567 23.73c-0.05741 0.0291-0.09539 0.04339-0.12796 0.06562-0.35829 0.24453-0.85766 0.91462-1.0468 0.64673-0.43344-0.61389 0.36699-0.89812 0.73902-1.2144 0.77911-0.66228 1.7268-0.86841 2.6518-0.4028 0.63474 0.3195 1.1599 0.85828 1.2759 1.8961-0.68687-0.5041-1.1077-0.58033-1.7405-0.14519-0.79383 0.54587-1.3501-0.1766-1.7514-0.8461z"/>
    <path d="m24.177 24.617c0.20292-1.3575 0.93525-1.9976 1.9953-2.0373 1.0655-0.03995 1.9841 0.46566 2.6085 1.3806 0.07434 0.10895 0.11461 0.32714 0.05531 0.42418-0.14138 0.23132-0.36332 0.11621-0.50179-0.01924-0.47221-0.4619-0.83189-0.59953-1.2828 0.09242-0.28361 0.43526-0.92717 0.44029-1.2924 0.12282-0.52685-0.45792-0.95414-0.69978-1.5822 0.03648z"/>
    <path d="m29.111 22.221c-0.07 0.28136-0.22303 0.44298-0.50872 0.29153-1.3817-0.73248-2.856-0.44274-4.3088-0.41698-0.20816 0.0037-0.52041 0.09083-0.5654-0.246-0.03714-0.27801 0.16931-0.46192 0.42442-0.47058 1.4194-0.04817 2.8522-0.27459 4.2369 0.25688 0.30504 0.11707 0.54408 0.31441 0.72161 0.58515z"/>
    <path d="m18.425 21.997c-0.96003 0.13168-1.9824-0.11567-2.8754 0.49294-0.15099 0.1029-0.40358 0.10632-0.51447-0.11285-0.12134-0.23984 0.09401-0.34406 0.24722-0.45867 0.56135-0.4199 1.2056-0.5829 1.8935-0.58195 0.9107 0.0013 1.8216 0.01027 2.7319 0.03555 0.254 0.007 0.47776 0.15267 0.47386 0.43208-0.0049 0.35273-0.30867 0.2897-0.52636 0.28243-0.47436-0.01583-0.94785-0.05772-1.4302-0.08952z"/>
    <path d="m19.788 31.137c0.02131-0.38493 0.29715-0.5457 0.54028-0.31336 1.161 1.1096 2.2486 0.76339 3.3532-0.06602 0.07909-0.05938 0.22988-0.02328 0.34691-0.03168-0.32553 1.3416-2.1228 1.9804-3.3604 1.1739-0.32222-0.20998-0.58822-0.50624-0.88003-0.76287z"/>
    <path d="m22.664 29.349c-0.40332 0.005-0.80663 0.0099-1.2098 0.01491-0.47802-0.28061-1.1347-0.17131-1.5312-0.73149 1.3716 0.0081 2.7183 0.1247 4.1661-0.18279-0.28152 0.90362-1.0878 0.47016-1.425 0.89938z"/>
   </g>
  </g>
 </g>
</svg>
